<svg width="320" height="64" viewBox="0 0 320 64" fill="none" xmlns="http://www.w3.org/2000/svg">
  <rect width="52" height="52" rx="14" fill="#0F1923"/>
  <path d="M15 12H21V27H37V12H43V40H37V33H21V40H15V12Z" fill="#F5F7FA"/>
  <circle cx="39" cy="15" r="5" fill="#00C2A8"/>
  <path d="M74.36 44V20.64H81.92V30H91.28V20.64H98.84V44H91.28V36.32H81.92V44H74.36ZM113.202 44.56C111.228 44.56 109.468 44.18 107.922 43.42C106.396 42.66 105.196 41.59 104.322 40.21C103.468 38.83 103.042 37.22 103.042 35.38C103.042 33.56 103.458 31.96 104.292 30.58C105.146 29.18 106.316 28.09 107.802 27.31C109.308 26.53 111.028 26.14 112.962 26.14C114.716 26.14 116.266 26.48 117.612 27.16C118.978 27.84 120.048 28.83 120.822 30.13C121.616 31.43 122.012 33 122.012 34.84C122.012 35.1 122.002 35.37 121.982 35.65C121.962 35.91 121.932 36.18 121.892 36.46H110.392C110.632 37.46 111.118 38.2 111.852 38.68C112.586 39.16 113.5 39.4 114.592 39.4C115.466 39.4 116.28 39.28 117.032 39.04C117.804 38.78 118.538 38.38 119.232 37.84L121.262 42.14C120.248 42.92 119.116 43.51 117.866 43.91C116.636 44.34 115.082 44.56 113.202 44.56ZM110.332 33.14H115.922C115.842 32.24 115.516 31.55 114.942 31.07C114.388 30.57 113.654 30.32 112.742 30.32C111.89 30.32 111.176 30.56 110.602 31.04C110.028 31.5 109.605 32.2 109.332 33.14H110.332ZM126.502 44V20.64H134.062V44H126.502ZM138.245 44V20.64H145.805V44H138.245ZM159.076 44.56C157.202 44.56 155.522 44.18 154.036 43.42C152.57 42.66 151.41 41.59 150.556 40.21C149.722 38.83 149.306 37.22 149.306 35.38C149.306 33.56 149.722 31.96 150.556 30.58C151.41 29.18 152.57 28.09 154.036 27.31C155.522 26.53 157.202 26.14 159.076 26.14C160.95 26.14 162.63 26.53 164.116 27.31C165.602 28.09 166.762 29.18 167.596 30.58C168.45 31.96 168.876 33.56 168.876 35.38C168.876 37.22 168.45 38.83 167.596 40.21C166.762 41.59 165.602 42.66 164.116 43.42C162.63 44.18 160.95 44.56 159.076 44.56ZM159.076 38.62C159.676 38.62 160.21 38.48 160.676 38.2C161.162 37.92 161.538 37.52 161.806 37C162.094 36.48 162.238 35.94 162.238 35.38C162.238 34.82 162.094 34.28 161.806 33.76C161.538 33.22 161.162 32.81 160.676 32.53C160.21 32.23 159.676 32.08 159.076 32.08C158.496 32.08 157.962 32.23 157.476 32.53C157.01 32.81 156.634 33.22 156.346 33.76C156.078 34.28 155.944 34.82 155.944 35.38C155.944 35.94 156.078 36.48 156.346 37C156.634 37.52 157.01 37.92 157.476 38.2C157.962 38.48 158.496 38.62 159.076 38.62ZM172.857 44V26.7H179.945L184.455 36.82L188.905 26.7H195.993V44H189.623V34.96L186.423 42.38H182.367L179.167 34.96V44H172.857ZM207.271 44.56C205.297 44.56 203.537 44.18 201.991 43.42C200.465 42.66 199.265 41.59 198.391 40.21C197.537 38.83 197.111 37.22 197.111 35.38C197.111 33.56 197.527 31.96 198.361 30.58C199.215 29.18 200.385 28.09 201.871 27.31C203.377 26.53 205.097 26.14 207.031 26.14C208.785 26.14 210.335 26.48 211.681 27.16C213.047 27.84 214.117 28.83 214.891 30.13C215.685 31.43 216.081 33 216.081 34.84C216.081 35.1 216.071 35.37 216.051 35.65C216.031 35.91 216.001 36.18 215.961 36.46H204.461C204.701 37.46 205.187 38.2 205.921 38.68C206.655 39.16 207.569 39.4 208.661 39.4C209.535 39.4 210.349 39.28 211.101 39.04C211.873 38.78 212.607 38.38 213.301 37.84L215.331 42.14C214.317 42.92 213.185 43.51 211.935 43.91C210.705 44.34 209.151 44.56 207.271 44.56ZM204.401 33.14H209.991C209.911 32.24 209.585 31.55 209.011 31.07C208.457 30.57 207.723 30.32 206.811 30.32C205.959 30.32 205.245 30.56 204.671 31.04C204.097 31.5 203.674 32.2 203.401 33.14H204.401ZM226.619 44.56C224.959 44.56 223.469 44.18 222.149 43.42C220.849 42.66 219.829 41.59 219.089 40.21C218.349 38.81 217.979 37.2 217.979 35.38C217.979 33.56 218.349 31.96 219.089 30.58C219.829 29.18 220.839 28.09 222.119 27.31C223.419 26.53 224.879 26.14 226.499 26.14C227.399 26.14 228.239 26.31 229.019 26.65C229.799 26.97 230.429 27.43 230.909 28.03V20.64H238.469V44H231.409V42.47C230.949 43.09 230.309 43.58 229.489 43.94C228.689 44.36 227.732 44.56 226.619 44.56ZM228.379 38.62C228.959 38.62 229.479 38.48 229.939 38.2C230.419 37.92 230.789 37.52 231.049 37C231.329 36.48 231.469 35.94 231.469 35.38C231.469 34.82 231.329 34.28 231.049 33.76C230.789 33.22 230.419 32.81 229.939 32.53C229.479 32.23 228.959 32.08 228.379 32.08C227.799 32.08 227.279 32.23 226.819 32.53C226.359 32.81 225.989 33.22 225.709 33.76C225.449 34.28 225.319 34.82 225.319 35.38C225.319 35.94 225.449 36.48 225.709 37C225.989 37.52 226.359 37.92 226.819 38.2C227.279 38.48 227.799 38.62 228.379 38.62Z" fill="#0F1923"/>
</svg>
